<mxfile host="app.diagrams.net" modified="2021-08-16T15:52:00.479Z" agent="5.0 (Macintosh; Intel Mac OS X 10_15_7) AppleWebKit/605.1.15 (KHTML, like Gecko) Version/14.1.2 Safari/605.1.15" etag="GNvXoByPtg7e_HZQGhrZ" version="14.9.6" type="github">
  <diagram id="w3s7KLypiFwCeAAzN-QF" name="Page-1">
    <mxGraphModel dx="816" dy="546" grid="1" gridSize="10" guides="1" tooltips="1" connect="1" arrows="1" fold="1" page="1" pageScale="1" pageWidth="827" pageHeight="1169" math="0" shadow="0">
      <root>
        <mxCell id="0" />
        <mxCell id="1" parent="0" />
      </root>
    </mxGraphModel>
  </diagram>
</mxfile>
